<svg width="400" height="400" xmlns="http://www.w3.org/2000/svg">

 <g>
  <title>background</title>
  <rect fill="none" id="canvas_background" height="402" width="402" y="-1" x="-1"/>
 </g>
 <g>
  <title>Layer 1</title>
  <path id="svg_1" d="m166.9,157.5c0,0 13.4,9.3 13.4,26c0,28.8 -39.1,60.9 -39.1,90.8c0,32.4 24.7,53.5 48.7,59.9c3.3,0.8 4.8,-3.2 0.7,-4.2c-9.7,-2.4 -20.5,-15.1 -20.5,-35c0,-18.3 17.7,-25.4 24.9,-34.4c7.3,-9.1 5.6,-20.8 1.3,-24.1c-4.2,-3.4 -1.4,-7.9 6.3,-2.5c7.8,5.4 14,15.4 11.7,25c-3,12.2 0.9,19.2 7.3,20.1s13.4,-2.3 12.7,-8.2c-0.7,-5.9 -4.2,-12.1 -2.1,-12.1c4.5,0 14.1,11.2 14.1,28.8c0,17.7 -14.6,30.1 -19.1,34.7c-2.7,2.8 0.9,6.4 4.5,4.8c1.9,-0.8 5.8,-3.1 8.2,-4.8c11.6,-8.3 29.6,-24.9 29.6,-55.8c0,-32.3 -12.3,-46.8 -24.6,-58.9c-12.3,-12.1 -15.5,-9 -12,-3.1c10.6,18.1 4.2,24.2 -3.6,24.2c-9,0 -9.5,-20.5 -13,-36.1c-7.8,-34.7 -39.1,-40.6 -45.1,-40.9c-6.1,-0.7 -11.3,2.7 -4.3,5.8z" fill="#000000"/>
  <path id="svg_2" d="m13.8,261.1c0,-39.7 13.8,-75.1 41.4,-106.3c10.1,-11.4 18,-17.2 23.5,-17.2c2.1,0 3.9,0.8 5.6,2.3c1.7,1.5 2.5,3.2 2.5,5.2c0,2.9 -3.5,7.7 -10.6,14.5c-28.8,27.7 -43.2,61.9 -43.2,102.6c0,45.2 14.9,82 44.8,110.5c6,5.7 9,10.3 9,13.7c0,2.2 -0.8,4.1 -2.5,5.7s-3.5,2.5 -5.7,2.5c-6.9,0 -16.7,-8.1 -29.4,-24.2c-23.6,-30.1 -35.4,-66.5 -35.4,-109.3z" fill="#000000"/>
  <path id="svg_3" d="m386.4,271.1c0,39.8 -13.8,75.2 -41.4,106.4c-10.1,11.4 -18,17.2 -23.5,17.2c-2.1,0 -3.9,-0.8 -5.6,-2.3c-1.7,-1.5 -2.5,-3.3 -2.5,-5.3c0,-2.8 3.5,-7.6 10.6,-14.4c28.8,-27.6 43.2,-61.8 43.2,-102.7c0,-45.1 -14.9,-82 -44.8,-110.5c-6,-5.7 -9,-10.2 -9,-13.5c0,-2.2 0.8,-4.1 2.5,-5.8c1.6,-1.7 3.5,-2.5 5.7,-2.5c6.8,0 16.5,8.1 29.3,24.3c23.6,30.2 35.5,66.6 35.5,109.1z" fill="#000000"/>
  <path id="svg_4" d="m294.1,375.2l-174.7,0c-5.7,0 -10.4,-4.6 -10.4,-10.4s4.6,-10.4 10.4,-10.4l174.7,0c5.7,0 10.4,4.6 10.4,10.4s-4.7,10.4 -10.4,10.4z" fill="#000000"/>
 </g>
</svg>