<svg xmlns="http://www.w3.org/2000/svg" xmlns:xlink="http://www.w3.org/1999/xlink" version="1.1" x="0px" y="0px" viewBox="0 0 100 125" style="enable-background:new 0 0 100 100;" xml:space="preserve"><style type="text/css">
	.st0{fill:#1D1D1B;}
</style><g><path class="st0" d="M90.8,47.3c-1.2-1.6-2.6-3.1-4.2-4.3c-3-2.3-6.7-3.8-10.7-4.1h-3.7H53.3V38   c0-1.1-0.8-1.9-1.8-2v-8.7l0-0.1c-0.1-0.7,0-2.9,1-4c0.5-0.6,1.2-0.8,2.2-0.8c1,0,1.8,0.3,2.3,0.9c1.1,1.2,1.1,3.3,1.1,4l0,1.7   c0,0.3,0,2.9,1.8,4.7c1,1,2.4,1.6,4,1.6c1.7,0,3.1-0.5,4.1-1.6c1.8-1.8,1.7-4.5,1.7-4.8c0-0.8-0.7-1.3-1.4-1.3   c-0.8,0-1.3,0.7-1.3,1.4c0,0,0,1.8-1,2.8c-0.5,0.5-1.2,0.7-2.1,0.7c-2.9,0-3.1-3-3.1-3.6v-1.5c0-0.6,0.2-3.9-1.8-6   c-1.1-1.2-2.5-1.8-4.3-1.8c-1.7,0-3.2,0.6-4.2,1.7c-1.9,2.1-1.8,5.4-1.7,6.1v8.7c-1.1,0.1-1.9,0.9-1.9,2v0.9H27.9h-3.7   c-4,0.3-7.7,1.8-10.7,4.1c-1.6,1.2-3,2.6-4.2,4.2c-2.5,3.3-4,7.4-4.1,11.8v1.4c0.1,4.6,1.8,8.7,4.4,12.1c3.8,4.9,9.8,8.1,16.5,8.1   c6.4,0,12.1-2.9,15.9-7.4c0.4-0.4,0.9-0.7,1.5-0.7h13.1c0.6,0,1.1,0.3,1.5,0.7c3.8,4.5,9.6,7.4,15.9,7.4c6.7,0,12.7-3.2,16.5-8.1   c2.8-3.5,4.4-8,4.4-12.8C94.9,55.1,93.4,50.8,90.8,47.3z M88.4,68.4c-0.9,1.6-2.1,2.9-3.5,4.1c-2.9,2.5-6.7,4-10.8,4   s-7.9-1.5-10.8-4c-1.1-1-2.2-2.1-3-3.3c-0.3-0.5-0.9-0.8-1.6-0.8H55H45h-3.6c-0.6,0-1.2,0.3-1.6,0.8c-0.9,1.2-1.9,2.3-3,3.3   c-2.9,2.5-6.7,4-10.8,4s-7.9-1.5-10.8-4c-1.4-1.2-2.6-2.6-3.5-4.1c-1.4-2.4-2.3-5.1-2.4-8c0-0.2,0-0.5,0-0.7s0-0.5,0-0.7   c0.3-8.4,6.8-15.2,15.1-16c0.6-0.1,1.1-0.1,1.7-0.1c0.6,0,1.1,0,1.7,0.1h10.9h22.9h10.9c0.6-0.1,1.1-0.1,1.7-0.1   c0.6,0,1.1,0,1.7,0.1c8.5,0.8,15.1,8,15.1,16.7C90.8,62.9,89.9,65.9,88.4,68.4z"/><path class="st0" d="M30.5,58.2h-3.1v-3.1c0-1.1-0.9-2.1-2.1-2.1s-2.1,0.9-2.1,2.1v3.1h-3.1   c-1.1,0-2.1,0.9-2.1,2.1c0,1.1,0.9,2.1,2.1,2.1h3.1v3.1c0,1.1,0.9,2.1,2.1,2.1s2.1-0.9,2.1-2.1v-3.1h3.1c1.1,0,2.1-0.9,2.1-2.1   C32.6,59.1,31.6,58.2,30.5,58.2z"/><circle class="st0" cx="73.7" cy="54.8" r="2.2"/><circle class="st0" cx="73.7" cy="65.8" r="2.2"/><circle class="st0" cx="68.2" cy="60.3" r="2.2"/><circle class="st0" cx="79.1" cy="60.3" r="2.2"/><path class="st0" d="M47.7,55.2h-3.5c-0.9,0-1.5,0.7-1.5,1.5s0.7,1.5,1.5,1.5h3.5c0.9,0,1.5-0.7,1.5-1.5   S48.5,55.2,47.7,55.2z"/><path class="st0" d="M55.9,55.2h-3.5c-0.9,0-1.5,0.7-1.5,1.5s0.7,1.5,1.5,1.5h3.5c0.9,0,1.5-0.7,1.5-1.5   S56.8,55.2,55.9,55.2z"/></g></svg>
