<svg width="300" height="300" xmlns="http://www.w3.org/2000/svg">

 <g>
  <title>background</title>
  <rect fill="none" id="canvas_background" height="302" width="302" y="-1" x="-1"/>
 </g>
 <g>
  <title>Layer 1</title>
  <ellipse ry="135" rx="135" id="svg_2" cy="150" cx="150" fill-opacity="0" stroke-width="10" fill="#009688" stroke="#009688"/>
  <path fill="#1C2A39" id="svg_1" d="m188.756098,204.855607c0,-2.413617 0,-4.866127 0,-7.327788l24.086743,0l2.214634,0c3.677207,0 6.654291,-3.282977 6.654291,-7.3255l0,-100.147957l0,-2.441071c0,-4.049386 -2.981239,-7.327788 -6.654291,-7.327788l-130.117029,0c-3.679284,0 -6.65429,3.280689 -6.65429,7.327788l0,2.441071l0,100.147957c0,4.047099 2.977084,7.3255 6.65429,7.3255l2.216712,0l90.750141,0c0,2.466237 0,4.923322 0,7.327788l-9.238723,0l0,2.438783c0,1.349795 -0.993053,2.441071 -2.218789,2.441071l-26.613005,0c-1.229891,0 -2.218789,-1.095851 -2.218789,-2.441071l0,-2.438783l-85.948997,0l0,4.884429c0,0 0,7.327788 6.65429,7.327788l119.584013,0c0,3.928133 0,7.318637 0,9.816902c0,15.552389 0.679348,32.82977 6.103748,32.82977c5.422322,0 4.745051,-15.550101 4.745051,-32.82977c0,-2.637821 0,-6.010021 0,-9.816902l52.920615,0c6.654291,0 6.654291,-7.327788 6.654291,-7.327788l0,-4.884429l-59.574906,0zm-101.596862,-17.094358l0,-97.706887l125.683605,0l0,97.706887l-24.086743,0c0,-6.817611 0,-13.136484 0,-17.899661l2.002727,0l-2.07544,-19.304362c3.643966,-1.683813 5.827438,-5.385455 6.34474,-9.206062c1.562293,-11.55791 -4.780369,-13.147923 -5.102385,-18.167332c-0.162046,-2.550884 0.822697,-5.472391 2.752712,-8.004973c1.984029,-2.621806 4.514446,-5.32826 4.514446,-5.32826s-7.003313,-0.210477 -10.98176,1.217103c-7.044863,2.53487 -13.663836,9.835205 -15.371555,17.947704c-2.094138,9.954169 -0.170357,17.901948 7.142506,21.100277l-2.123223,19.752769l2.052588,0c0,4.767752 0,11.100351 0,17.897372l-90.752218,-0.004575l0,0z"/>
 </g>
</svg>