<svg width="300" height="300" xmlns="http://www.w3.org/2000/svg">
 <style type="text/css">.st0{fill:#1C2A39;}</style>

 <g>
  <title>background</title>
  <rect fill="none" id="canvas_background" height="302" width="302" y="-1" x="-1"/>
 </g>
 <g>
  <title>Layer 1</title>
  <ellipse fill="#009688" stroke="#009688" ry="135" rx="135" id="svg_4" cy="150" cx="150.000006" fill-opacity="0" stroke-width="10" />
  <path stroke="#000000" fill="white" id="svg_1" d="m232.860319,124.694328l-137.988781,0l135.362347,-24.35955c1.212201,-0.179114 2.424401,-0.895571 3.232534,-1.970258c0.808133,-0.895571 1.010167,-2.149372 0.808133,-3.403172l-5.050834,-21.851948c-0.6061,-2.328486 -3.232534,-3.940516 -5.858967,-3.403173l-157.586017,28.300064c-2.626433,0.537342 -4.444734,2.865829 -3.838633,5.194315l5.050834,21.851948c0.202033,0.716458 0.404067,1.253801 1.010166,1.791144c-0.404067,0.716457 -0.6061,1.432914 -0.6061,2.149372l0,22.210177l0,0l0,74.690676c0,2.5076 2.222367,4.477858 5.050834,4.477858l160.616517,0c2.828467,0 5.050834,-1.970259 5.050834,-4.477858l0,-74.511562l0,0l0,-22.210177c-0.202034,-2.507601 -2.626434,-4.477858 -5.252867,-4.477858l0,0.000001zm-33.941603,22.210177l-16.364701,0l13.940301,-12.358889c0.404068,-0.358229 0.6061,-0.716457 0.808133,-1.074686l16.566735,0l-14.748434,13.075346c0,0.179114 0,0.179114 -0.202034,0.358229zm-30.102969,-0.358229c-0.202034,0.179114 -0.202034,0.179114 -0.404068,0.358229l-16.364701,0l13.940301,-12.358889c0.404068,-0.358229 0.6061,-0.716457 0.808133,-1.074686l16.566735,0l-14.546401,13.075346l0.000001,0zm-30.305003,0c-0.202034,0.179114 -0.202034,0.179114 -0.404068,0.358229l-16.364701,0l13.940301,-12.358889c0.404068,-0.358229 0.6061,-0.716457 0.808133,-1.074686l16.566735,0l-14.546401,13.075346l0.000001,0zm-30.507037,0c-0.202034,0.179114 -0.202034,0.179114 -0.404068,0.358229l-16.364701,0l13.940302,-12.358889c0.404067,-0.358229 0.6061,-0.716457 0.808133,-1.074686l16.566735,0l-14.546402,13.075346l0.000001,0zm-30.507037,0c-0.202034,0.179114 -0.202034,0.179114 -0.404067,0.358229l0,0l0,-13.25446l14.950468,0l-14.546402,12.896231l0.000001,0zm135.56438,0.358229l13.940302,-12.358889c0.404067,-0.358229 0.6061,-0.716457 0.808133,-1.074686l0,13.25446l-14.748435,0l0,0.179114zm-20.405368,-61.61533l16.364701,9.672174l-15.960635,2.86583c-0.202034,-0.179114 -0.202034,-0.179114 -0.404067,-0.358229l-17.374868,-10.209517l16.162668,-2.865829c0.404068,0.358228 0.808133,0.716457 1.212201,0.895571zm-29.900936,5.373431l16.364701,9.672174l-15.960635,2.86583c-0.202033,-0.179114 -0.202033,-0.179114 -0.404067,-0.358229l-17.172835,-10.030403l16.162668,-2.86583c0.202034,0.179114 0.6061,0.537343 1.010167,0.716458zm-29.698903,5.37343l16.364701,9.672174l-15.960634,2.86583c-0.202034,-0.179114 -0.202034,-0.179114 -0.404068,-0.358229l-17.374868,-10.209517l16.162668,-2.86583c0.404067,0.358229 0.808133,0.716457 1.2122,0.895571l0,0.000001zm-29.900936,5.373431l16.364702,9.672174l-15.960635,2.865829c-0.202034,-0.179114 -0.202034,-0.179114 -0.404068,-0.358228l-17.374867,-10.209517l16.162668,-2.86583c0.404068,0.358229 0.808133,0.716458 1.2122,0.895572zm-29.698903,5.373431l16.364701,9.672174l-13.940302,2.507601l-2.828467,-12.538002c0,0.179114 0.202034,0.358229 0.404068,0.358229l0,-0.000001zm149.908748,-14.329147l-0.404067,0c-0.202034,-0.179114 -0.202034,-0.179114 -0.404068,-0.358229l-17.374868,-10.209517l15.152501,-2.686715l3.0305,13.25446l0.000001,0.000001zm-146.070115,129.141433l0,-65.734959l150.514849,0l0,65.734959l-150.514849,0z" class="st0"/>
 </g>
</svg>