<svg xmlns="http://www.w3.org/2000/svg" xmlns:xlink="http://www.w3.org/1999/xlink" version="1.1" x="0px" y="0px" viewBox="0 0 100 125" style="enable-background:new 0 0 100 100;" xml:space="preserve"><style type="text/css">
	.st0{fill:#1D1D1B;}
</style><path class="st0" d="M91.2,35.9H22.9l67-13.6c0.6-0.1,1.2-0.5,1.6-1.1c0.4-0.5,0.5-1.2,0.4-1.9L89.4,7.1  c-0.3-1.3-1.6-2.2-2.9-1.9L8.5,21c-1.3,0.3-2.2,1.6-1.9,2.9l2.5,12.2c0.1,0.4,0.2,0.7,0.5,1c-0.2,0.4-0.3,0.8-0.3,1.2v12.4v0v41.7  c0,1.4,1.1,2.5,2.5,2.5h79.5c1.4,0,2.5-1.1,2.5-2.5V50.8v0V38.4C93.7,37,92.5,35.9,91.2,35.9z M74.4,48.3h-8.1l6.9-6.9  c0.2-0.2,0.3-0.4,0.4-0.6h8.2l-7.3,7.3C74.5,48.2,74.5,48.2,74.4,48.3z M59.5,48.1c-0.1,0.1-0.1,0.1-0.2,0.2h-8.1l6.9-6.9  c0.2-0.2,0.3-0.4,0.4-0.6h8.2L59.5,48.1z M44.5,48.1c-0.1,0.1-0.1,0.1-0.2,0.2h-8.1l6.9-6.9c0.2-0.2,0.3-0.4,0.4-0.6h8.2L44.5,48.1z   M29.4,48.1c-0.1,0.1-0.1,0.1-0.2,0.2h-8.1l6.9-6.9c0.2-0.2,0.3-0.4,0.4-0.6h8.2L29.4,48.1z M14.3,48.1c-0.1,0.1-0.1,0.1-0.2,0.2h0  v-7.4h7.4L14.3,48.1z M81.4,48.3l6.9-6.9c0.2-0.2,0.3-0.4,0.4-0.6v7.4H81.4z M71.3,13.9l8.1,5.4l-7.9,1.6c-0.1-0.1-0.1-0.1-0.2-0.2  l-8.6-5.7l8-1.6C70.9,13.6,71.1,13.8,71.3,13.9z M56.5,16.9l8.1,5.4l-7.9,1.6c-0.1-0.1-0.1-0.1-0.2-0.2L48,18.1l8-1.6  C56.1,16.6,56.3,16.8,56.5,16.9z M41.8,19.9l8.1,5.4L42,26.9c-0.1-0.1-0.1-0.1-0.2-0.2l-8.6-5.7l8-1.6  C41.4,19.6,41.6,19.8,41.8,19.9z M27,22.9l8.1,5.4l-7.9,1.6c-0.1-0.1-0.1-0.1-0.2-0.2l-8.6-5.7l8-1.6C26.6,22.6,26.8,22.8,27,22.9z   M12.3,25.9l8.1,5.4l-6.9,1.4l-1.4-7C12.1,25.8,12.2,25.9,12.3,25.9z M86.5,17.9l-0.2,0c-0.1-0.1-0.1-0.1-0.2-0.2l-8.6-5.7l7.5-1.5  L86.5,17.9z M14.2,90V53.3h74.5V90H14.2z"/></svg>
