<svg width="300" height="302" xmlns="http://www.w3.org/2000/svg">
 <metadata/>

 <g>
  <title>background</title>
  <rect x="-1" y="-1" width="302" height="304" id="canvas_background" fill="none"/>
 </g>
 <g>
  <title>Layer 1</title>
  <ellipse fill="#009688" stroke="#009688" stroke-width="10" cx="151.000003" cy="151" id="svg_5" rx="135" ry="135" fill-opacity="0"/>
  <g id="svg_1" stroke="null">
   <g stroke="null" id="svg_2">
    <path fill="#1C2A39" d="m106.936059,224.959116c-8.040197,7.549298 -21.125628,7.549298 -29.169951,0c-8.040197,-7.549298 -8.040197,-19.839666 0,-27.388964l14.587038,-13.692546c0.775556,0.728203 1.82338,1.134913 2.920708,1.134913c1.093203,0 2.145153,-0.40671 2.916583,-1.134913l8.749748,-8.219401l2.916583,2.738509c0.804432,0.755318 1.860508,1.134913 2.916583,1.134913c0.998321,0 1.996642,-0.336988 2.788699,-1.01871l70.010358,-60.251074c0.136135,-0.116203 0.198014,-0.271139 0.309397,-0.402836c7.648295,-0.046481 14.826305,-2.854712 20.234565,-7.932767c5.453638,-5.120663 8.460977,-11.930138 8.460977,-19.173437c0,-7.243298 -3.007339,-14.0489 -8.460977,-19.173437s-12.701779,-7.940514 -20.416078,-7.940514s-14.96244,2.81985 -20.416078,7.940514c-5.412386,5.08193 -8.403223,11.825556 -8.452727,19.003007c-0.136135,0.108456 -0.297021,0.162684 -0.424905,0.290507l-64.177192,65.731965c-1.493357,1.530001 -1.439728,3.888915 0.123759,5.356942l2.916583,2.738509l-8.749748,8.215527c-1.61299,1.514508 -1.61299,3.96251 0,5.477018l0,0.003874l-14.587038,13.692546c-11.257926,10.570568 -11.257926,27.772433 0,38.343001c5.631026,5.283348 13.027677,7.928895 20.420204,7.928895s14.789177,-2.645547 20.416078,-7.928895c8.044322,-7.545426 21.129754,-7.553172 29.169951,0c0.804432,0.755318 1.860508,1.134913 2.916583,1.134913s2.11215,-0.379595 2.916583,-1.134913c1.61299,-1.514508 1.61299,-3.96251 0,-5.477018c-11.253801,-10.566694 -29.578355,-10.566694 -40.836282,0.003874l-0.000003,-0.000001zm64.173068,-147.902732c3.894278,-3.65651 9.075646,-5.670689 14.582913,-5.670689s10.688636,2.01418 14.582913,5.670689s6.043555,8.521528 6.043555,13.696419c0,5.174891 -2.149278,10.036035 -6.043555,13.696419s-9.075646,5.670689 -14.582913,5.670689s-10.688636,-2.01418 -14.582913,-5.670689s-6.043555,-8.521528 -6.043555,-13.696419c0,-5.174891 2.149278,-10.036035 6.043555,-13.696419zm-12.50789,23.031365c1.427351,3.648763 3.659135,7.010893 6.674725,9.838491c3.01559,2.831471 6.592219,4.930866 10.478246,6.267197l-8.0732,6.945045l-16.480548,-15.474319l7.400777,-7.576413l0.000001,0zm-12.978173,13.293583l15.973137,14.997888l-48.703216,41.914295l-11.913848,-11.190315l44.643928,-45.721869l-0.000001,0.000001z" id="svg_3"/>
    <path fill="#1C2A39" d="m237.736743,160.044443c-1.002446,-0.73595 -2.31429,-1.00709 -3.535376,-0.704962l-33.002349,7.746844c-1.835755,0.429949 -3.126973,1.979319 -3.126973,3.757219l0,27.830534c-1.295342,-0.433823 -2.669065,-0.716583 -4.125293,-0.716583c-6.823235,0 -12.375881,5.213625 -12.375881,11.620265s5.552645,11.620265 12.375881,11.620265s12.375881,-5.213625 12.375881,-11.620265l0,-35.709074l24.751762,-5.810133l0,22.864808c-1.295342,-0.433823 -2.669065,-0.716583 -4.125293,-0.716583c-6.823235,0 -12.375881,5.213625 -12.375881,11.620265s5.552645,11.620265 12.375881,11.620265s12.375881,-5.213625 12.375881,-11.620265l0,-38.734217c-0.004125,-1.189141 -0.585792,-2.316306 -1.588238,-3.048383l-0.000001,0.000001zm-43.794117,53.406738c-2.277162,0 -4.125293,-1.735293 -4.125293,-3.873422s1.848131,-3.873422 4.125293,-3.873422s4.125293,1.735293 4.125293,3.873422s-1.848131,3.873422 -4.125293,3.873422zm33.002349,-7.746844c-2.277162,0 -4.125293,-1.735293 -4.125293,-3.873422s1.848131,-3.873422 4.125293,-3.873422s4.125293,1.735293 4.125293,3.873422s-1.848131,3.873422 -4.125293,3.873422z" id="svg_4"/>
   </g>
  </g>
 </g>
</svg>