<svg xmlns:x="http://ns.adobe.com/Extensibility/1.0/" xmlns:i="http://ns.adobe.com/AdobeIllustrator/10.0/" xmlns:graph="http://ns.adobe.com/Graphs/1.0/" xmlns="http://www.w3.org/2000/svg" xmlns:xlink="http://www.w3.org/1999/xlink" version="1.1" x="0px" y="0px" viewBox="0 0 64 80" enable-background="new 0 0 64 64" xml:space="preserve"><metadata><sfw xmlns="http://ns.adobe.com/SaveForWeb/1.0/"><slices/><sliceSourceBounds height="16384" width="16389" x="-8165" y="-8160" bottomLeftOrigin="true"/></sfw></metadata><g><g><path d="M21.222,51.092c-1.949,1.949-5.121,1.949-7.071,0c-1.949-1.949-1.949-5.122,0-7.071l3.536-3.535    c0.188,0.188,0.442,0.293,0.708,0.293c0.265,0,0.52-0.105,0.707-0.293l2.121-2.122l0.707,0.707    c0.195,0.195,0.451,0.293,0.707,0.293c0.242,0,0.484-0.087,0.676-0.263l16.971-15.555c0.033-0.03,0.048-0.07,0.075-0.104    c1.854-0.012,3.594-0.737,4.905-2.048c1.322-1.322,2.051-3.08,2.051-4.95c0-1.87-0.729-3.627-2.051-4.95s-3.079-2.05-4.949-2.05    s-3.627,0.728-4.949,2.05c-1.312,1.312-2.037,3.053-2.049,4.906c-0.033,0.028-0.072,0.042-0.103,0.075l-15.557,16.97    c-0.362,0.395-0.349,1.004,0.03,1.383l0.707,0.707l-2.121,2.121c-0.391,0.391-0.391,1.023,0,1.414l0,0.001l-3.536,3.535    c-2.729,2.729-2.729,7.17,0,9.899c1.365,1.364,3.158,2.047,4.95,2.047s3.585-0.683,4.949-2.047c1.95-1.948,5.122-1.95,7.071,0    c0.195,0.195,0.451,0.293,0.707,0.293s0.512-0.098,0.707-0.293c0.391-0.391,0.391-1.023,0-1.414    C28.393,48.363,23.951,48.363,21.222,51.092z M36.778,12.908c0.944-0.944,2.2-1.464,3.535-1.464s2.591,0.52,3.535,1.464    s1.465,2.2,1.465,3.536c0,1.336-0.521,2.591-1.465,3.536s-2.2,1.464-3.535,1.464s-2.591-0.52-3.535-1.464s-1.465-2.2-1.465-3.536    C35.313,15.108,35.834,13.853,36.778,12.908z M33.746,18.854c0.346,0.942,0.887,1.81,1.618,2.54    c0.731,0.731,1.598,1.273,2.54,1.618l-1.957,1.793l-3.995-3.995L33.746,18.854z M30.6,22.286l3.872,3.872L22.666,36.979    l-2.888-2.889L30.6,22.286z"/><path d="M52.929,34.333c-0.243-0.19-0.561-0.26-0.857-0.182l-8,2c-0.445,0.111-0.758,0.511-0.758,0.97v7.185    c-0.314-0.112-0.647-0.185-1-0.185c-1.654,0-3,1.346-3,3s1.346,3,3,3s3-1.346,3-3v-9.219l6-1.5v5.903    c-0.314-0.112-0.647-0.185-1-0.185c-1.654,0-3,1.346-3,3s1.346,3,3,3s3-1.346,3-3v-10C53.313,34.813,53.172,34.522,52.929,34.333z     M42.313,48.121c-0.552,0-1-0.448-1-1s0.448-1,1-1s1,0.448,1,1S42.865,48.121,42.313,48.121z M50.313,46.121c-0.552,0-1-0.448-1-1    s0.448-1,1-1s1,0.448,1,1S50.865,46.121,50.313,46.121z"/></g></g></svg>
